<svg width="113" height="40" viewBox="0 0 113 40" fill="none" xmlns="http://www.w3.org/2000/svg">
<g clip-path="url(#clip0_91_399)">
<path d="M8.77644 16.5205C9.43521 16.5205 10.1883 16.542 11.0344 16.585C11.8805 16.6279 12.6766 16.6924 13.4224 16.7783V15.6601C13.4224 14.0537 13.1145 12.9426 12.4975 12.3256C11.8805 11.7086 10.9282 11.4007 9.6369 11.4007C8.7478 11.4007 8.01623 11.5368 7.44339 11.8089C6.86935 12.0822 6.46717 12.5476 6.23922 13.2076C6.12465 13.5513 5.98144 13.7745 5.8084 13.8747C5.63654 13.9761 5.32029 14.0251 4.86201 14.0251H2.06462C1.60516 14.0251 1.29009 13.9463 1.11824 13.7888C0.946385 13.6312 0.860459 13.3949 0.860459 13.0787C0.860459 11.9604 1.30561 10.9138 2.19471 9.93759C2.91196 9.16306 3.85715 8.56038 5.03386 8.13075C6.20939 7.70112 7.74413 7.48511 9.6369 7.48511C11.8746 7.48511 13.6301 7.78585 14.9071 8.38853C16.1828 8.99121 17.0803 9.88031 17.5958 11.0558C18.1114 12.2325 18.3704 13.6515 18.3704 15.3152V23.7037C18.3704 24.9664 18.1269 26.1634 17.6388 27.2959C17.1507 28.4297 16.3117 29.3391 15.1219 30.0277C13.932 30.7163 12.2612 31.06 10.1107 31.06H8.90533C5.86568 31.06 3.62085 30.4943 2.17323 29.3606C0.723215 28.2292 0 26.4009 0 23.8768C0 22.0127 0.39383 20.5424 1.18268 19.4671C1.97154 18.3918 3.03249 17.6316 4.36674 17.1865C5.70099 16.7425 7.17009 16.5193 8.77644 16.5193V16.5205ZM9.03422 20.435C7.68565 20.435 6.67482 20.6927 6.00054 21.2095C5.32625 21.7262 4.98971 22.601 4.98971 23.8338C4.98971 25.0666 5.31909 25.9271 5.97906 26.4152C6.63783 26.9033 7.56989 27.1468 8.77525 27.1468H9.50682C10.9115 27.1468 11.9163 26.8031 12.5178 26.1145C13.1205 25.4259 13.4212 24.2647 13.4212 22.6297C13.4212 22.6297 13.3329 20.5853 10.9258 20.4791C9.96032 20.4361 9.57723 20.4361 9.03303 20.4361L9.03422 20.435Z" fill="#E76943"/>
<path d="M44.301 7.48508C46.6246 7.48508 48.3514 8.18085 49.4852 9.57119C50.6178 10.9627 51.1846 12.8627 51.1846 15.271L51.1894 29.8117C51.1894 30.3284 51.0963 30.665 50.9101 30.8225C50.7228 30.98 50.3576 31.0588 49.8134 31.0588H47.4468C46.9014 31.0588 46.5362 30.98 46.3501 30.8225C46.1627 30.665 46.0708 30.3272 46.0708 29.8117L46.066 16.0455C46.066 14.7268 45.8142 13.716 45.313 13.013C44.8106 12.3101 43.9 11.9592 42.5812 11.9592C41.2625 11.9592 40.3149 12.3889 39.5702 13.2493C38.8243 14.1098 38.4508 15.2865 38.4508 16.7771L38.4556 29.8117C38.4556 30.3284 38.3625 30.665 38.1763 30.8225C37.9889 30.98 37.6238 31.0588 37.0784 31.0588H34.713C34.1676 31.0588 33.8012 30.98 33.615 30.8225C33.4289 30.665 33.3358 30.3272 33.3358 29.8117L33.331 16.0455C33.331 14.7268 33.0792 13.716 32.578 13.013C32.0755 12.3101 31.1649 11.9592 29.8462 11.9592C28.5275 11.9592 27.5799 12.3889 26.834 13.2493C26.0881 14.1098 25.7158 15.2865 25.7158 16.7771L25.7205 29.8117C25.7205 30.3284 25.6275 30.665 25.4413 30.8225C25.2539 30.98 24.8887 31.0588 24.3445 31.0588H21.978C21.4326 31.0588 21.0674 30.98 20.8812 30.8225C20.6938 30.665 20.6019 30.3272 20.6019 29.8117L20.5972 9.33369C20.5972 8.81694 20.6903 8.4804 20.8764 8.32286C21.0626 8.16533 21.4278 8.08657 21.9732 8.08657H24.2538C24.798 8.08657 25.1644 8.16533 25.3506 8.32286C25.5368 8.4804 25.6298 8.81694 25.6298 9.33369V10.1942C26.9772 8.38731 28.9559 7.48389 31.5671 7.48389C33.0004 7.48389 34.2046 7.75718 35.1808 8.30138C36.1546 8.84678 36.9161 9.62131 37.4603 10.625C38.1489 9.62131 39.0809 8.84678 40.2564 8.30138C41.432 7.75718 42.7805 7.48389 44.301 7.48389V7.48508Z" fill="#E76943"/>
<path d="M79.1481 1.24713V9.89468C80.5826 8.28833 82.5899 7.48516 85.1713 7.48516C87.6083 7.48516 89.4223 8.18092 90.6133 9.57126C91.8032 10.9628 92.3987 12.8627 92.3987 15.2711V29.8117C92.3987 30.2998 92.3128 30.6292 92.1409 30.8011C91.9691 30.9729 91.5955 31.0589 91.0215 31.0589H88.6561C88.1107 31.0589 87.7443 30.9729 87.5582 30.8011C87.372 30.6292 87.2789 30.2998 87.2789 29.8117V16.0456C87.2789 14.7269 87.0056 13.716 86.4614 13.0131C85.916 12.3102 84.9267 11.9593 83.4934 11.9593C82.1448 11.9593 81.0838 12.3889 80.3093 13.2494C79.5348 14.1099 79.1469 15.2866 79.1469 16.7772V29.8117C79.1469 30.2998 79.061 30.6292 78.8891 30.8011C78.7173 30.9729 78.3437 31.0589 77.7697 31.0589H75.4043C74.8589 31.0589 74.4926 30.9729 74.3076 30.8011C74.1202 30.6292 74.0283 30.2998 74.0283 29.8117V1.24713C74.0283 0.760211 74.1214 0.429633 74.3076 0.25778C74.4938 0.0859265 74.8589 0 75.4043 0H77.7697C78.3426 0 78.7161 0.0859265 78.8891 0.25778C79.061 0.429633 79.1469 0.760211 79.1469 1.24713H79.1481Z" fill="#E76943"/>
<path d="M62.2086 16.5205C62.8674 16.5205 63.6204 16.542 64.4666 16.585C65.3127 16.6279 66.1087 16.6924 66.8546 16.7783V15.6601C66.8546 14.0537 66.5467 12.9426 65.9297 12.3256C65.3127 11.7086 64.3604 11.4007 63.0691 11.4007C62.18 11.4007 61.4484 11.5368 60.8756 11.8089C60.3015 12.0822 59.8994 12.5476 59.6714 13.2076C59.5568 13.5513 59.4136 13.7745 59.2406 13.8747C59.0687 13.9761 58.7525 14.0251 58.2942 14.0251H55.498C55.0385 14.0251 54.7235 13.9463 54.5516 13.7888C54.3798 13.6312 54.2938 13.3949 54.2938 13.0787C54.2938 11.9604 54.739 10.9138 55.6281 9.93759C56.3453 9.16306 57.2905 8.56038 58.4672 8.13075C59.6428 7.70112 61.1775 7.48511 63.0703 7.48511C65.3079 7.48511 67.0635 7.78585 68.3404 8.38853C69.6162 8.99121 70.5137 9.88031 71.0292 11.0558C71.5448 12.2325 71.8038 13.6515 71.8038 15.3152V23.7037C71.8038 24.9664 71.5603 26.1634 71.0722 27.2959C70.5841 28.4297 69.7451 29.3391 68.5553 30.0277C67.3654 30.7163 65.6946 31.06 63.5441 31.06H62.3387C59.2991 31.06 57.0542 30.4943 55.6066 29.3606C54.1578 28.228 53.4346 26.3997 53.4346 23.8756C53.4346 22.0115 53.8284 20.5412 54.6173 19.4659C55.4061 18.3906 56.4671 17.6304 57.8013 17.1853C59.1356 16.7413 60.6047 16.5181 62.211 16.5181L62.2086 16.5205ZM62.4664 20.435C61.1178 20.435 60.107 20.6927 59.4327 21.2095C58.7584 21.7262 58.4219 22.601 58.4219 23.8338C58.4219 25.0666 58.7513 25.9271 59.4112 26.4152C60.07 26.9033 61.0021 27.1468 62.2074 27.1468H62.939C64.3437 27.1468 65.3485 26.8031 65.95 26.1145C66.5527 25.4259 66.8534 24.2647 66.8534 22.6297C66.8534 22.6297 66.7651 20.5853 64.358 20.4791C63.3925 20.4361 63.0094 20.4361 62.4652 20.4361L62.4664 20.435Z" fill="#E76943"/>
<path d="M103.402 16.5205C104.061 16.5205 104.814 16.542 105.66 16.585C106.506 16.6279 107.302 16.6924 108.048 16.7783V15.6601C108.048 14.0537 107.74 12.9426 107.123 12.3256C106.506 11.7086 105.554 11.4007 104.262 11.4007C103.373 11.4007 102.642 11.5368 102.069 11.8089C101.495 12.0822 101.093 12.5476 100.865 13.2076C100.75 13.5513 100.607 13.7745 100.434 13.8747C100.262 13.9761 99.9459 14.0251 99.4876 14.0251H96.6914C96.2319 14.0251 95.9168 13.9463 95.745 13.7888C95.5731 13.6312 95.4872 13.3949 95.4872 13.0787C95.4872 11.9604 95.9323 10.9138 96.8215 9.93759C97.5387 9.16306 98.4839 8.56038 99.6606 8.13075C100.836 7.70112 102.371 7.48511 104.264 7.48511C106.501 7.48511 108.257 7.78585 109.534 8.38853C110.81 8.99121 111.707 9.88031 112.223 11.0558C112.738 12.2325 112.997 13.6515 112.997 15.3152V23.7037C112.997 24.9664 112.754 26.1634 112.266 27.2959C111.778 28.4297 110.939 29.3391 109.749 30.0277C108.559 30.7163 106.888 31.06 104.737 31.06H103.532C100.492 31.06 98.2476 30.4943 96.8 29.3606C95.3511 28.228 94.6279 26.3997 94.6279 23.8756C94.6279 22.0115 95.0218 20.5412 95.8106 19.4659C96.5995 18.3906 97.6604 17.6304 98.9947 17.1853C100.329 16.7413 101.798 16.5181 103.404 16.5181L103.402 16.5205ZM103.66 20.435C102.311 20.435 101.3 20.6927 100.626 21.2095C99.9518 21.7262 99.6153 22.601 99.6153 23.8338C99.6153 25.0666 99.9447 25.9271 100.605 26.4152C101.263 26.9033 102.195 27.1468 103.401 27.1468H104.132C105.537 27.1468 106.542 26.8031 107.143 26.1145C107.746 25.4259 108.047 24.2647 108.047 22.6297C108.047 22.6297 107.959 20.5853 105.551 20.4791C104.586 20.4361 104.203 20.4361 103.659 20.4361L103.66 20.435Z" fill="#E76943"/>
<path d="M1.71018 39.938V37.7755L1.75314 38.0786L0 35.6023H1.07169L2.40952 37.5225L1.98824 37.5034L3.19599 35.6011H4.23069L2.55154 38.1478L2.64463 37.7266V39.938H1.70898H1.71018Z" fill="#4C4C4C"/>
<path d="M6.8573 40C6.53985 40 6.24627 39.9439 5.97775 39.8329C5.70923 39.7208 5.47532 39.5656 5.27482 39.3651C5.07433 39.1646 4.92038 38.9271 4.81297 38.6526C4.70556 38.3782 4.65186 38.0798 4.65186 37.7576C4.65186 37.4354 4.70556 37.1334 4.81297 36.8625C4.92038 36.5916 5.07433 36.3553 5.27482 36.1536C5.47532 35.9507 5.70923 35.7944 5.97775 35.6822C6.24627 35.5712 6.53985 35.5151 6.8573 35.5151C7.17475 35.5151 7.4743 35.5712 7.74044 35.6822C8.00657 35.7944 8.24048 35.9507 8.44098 36.1536C8.64147 36.3565 8.79542 36.5928 8.90283 36.8661C9.01024 37.1394 9.06395 37.4366 9.06395 37.7576C9.06395 38.0786 9.01024 38.377 8.90283 38.6491C8.79542 38.9224 8.64147 39.1599 8.44098 39.3615C8.24048 39.5644 8.00777 39.7208 7.74044 39.8329C7.4743 39.9439 7.17953 40 6.8573 40ZM6.8573 39.1205C7.0387 39.1205 7.20698 39.0871 7.36212 39.0214C7.51727 38.9558 7.64974 38.8603 7.76192 38.7362C7.8741 38.6121 7.96122 38.4677 8.02567 38.303C8.09011 38.1383 8.12114 37.9557 8.12114 37.7576C8.12114 37.5595 8.08892 37.3781 8.02567 37.2122C7.96122 37.0463 7.8741 36.9031 7.76192 36.7814C7.65093 36.6596 7.51727 36.5642 7.36212 36.4961C7.20698 36.4281 7.0387 36.3935 6.8573 36.3935C6.6759 36.3935 6.50882 36.4281 6.35607 36.4961C6.20331 36.5642 6.06845 36.6596 5.95388 36.7814C5.83812 36.9031 5.751 37.0463 5.69013 37.2122C5.63046 37.3769 5.60063 37.5595 5.60063 37.7576C5.60063 37.9557 5.63046 38.1383 5.69013 38.303C5.74981 38.4689 5.83812 38.6133 5.95388 38.7362C6.06964 38.8603 6.20331 38.9558 6.35607 39.0214C6.50882 39.0871 6.6759 39.1205 6.8573 39.1205Z" fill="#4C4C4C"/>
<path d="M12.0622 39.9761C11.7113 39.9761 11.3986 39.9033 11.1241 39.7565C10.8496 39.6097 10.6336 39.408 10.4773 39.149C10.3198 38.8912 10.2422 38.5988 10.2422 38.2718V35.5962H11.1778V38.217C11.1778 38.3912 11.2172 38.5463 11.296 38.6848C11.3747 38.8232 11.481 38.9342 11.6146 39.0165C11.7483 39.0989 11.8987 39.1407 12.0634 39.1407C12.228 39.1407 12.3868 39.0989 12.5252 39.0165C12.6636 38.9342 12.7734 38.8232 12.8534 38.6848C12.9334 38.5463 12.9739 38.3912 12.9739 38.217V35.5962H13.8786V38.2718C13.8786 38.5977 13.7998 38.89 13.6434 39.149C13.4859 39.4068 13.2711 39.6097 12.9966 39.7565C12.7221 39.9033 12.4118 39.9761 12.0645 39.9761H12.0622Z" fill="#4C4C4C"/>
<path d="M15.3391 39.938V35.6011H17.2593C17.5278 35.6011 17.7713 35.6619 17.9909 35.7837C18.2093 35.9054 18.3823 36.0701 18.5076 36.2766C18.6341 36.483 18.6962 36.7181 18.6962 36.9831C18.6962 37.248 18.6329 37.4795 18.5076 37.692C18.3811 37.9044 18.2093 38.0727 17.9909 38.1968C17.7725 38.3209 17.5278 38.3829 17.2593 38.3829H16.2365V39.938H15.3379H15.3391ZM16.2377 37.6275H17.2163C17.3273 37.6275 17.4264 37.6013 17.5111 37.5499C17.5958 37.4986 17.6603 37.4258 17.7056 37.3327C17.751 37.2396 17.7737 37.1358 17.7737 37.0201C17.7737 36.8959 17.7462 36.7885 17.6925 36.6978C17.6388 36.6071 17.56 36.5355 17.4574 36.4842C17.3536 36.4329 17.2342 36.4066 17.0982 36.4066H16.2365V37.6275H16.2377ZM17.7987 39.938L16.696 37.9808L17.6496 37.8256L18.8764 39.9439L17.7987 39.938Z" fill="#4C4C4C"/>
<path d="M22.3207 39.938V35.6011H23.1693L24.7494 38.1717L24.192 38.1657L25.79 35.6011H26.6016V39.938H25.691V38.451C25.691 38.0798 25.7005 37.7445 25.7184 37.4473C25.7375 37.1501 25.7685 36.8542 25.8139 36.5618L25.9249 36.853L24.6551 38.8233H24.2457L23.001 36.8661L23.106 36.563C23.1514 36.8398 23.1836 37.1239 23.2015 37.4151C23.2206 37.7063 23.2289 38.0524 23.2289 38.4522V39.9392H22.3184L22.3207 39.938Z" fill="#4C4C4C"/>
<path d="M28.1006 39.938V35.6011H31.0304V36.4186H29.0052V39.1193H31.0746V39.9368H28.1006V39.938ZM28.5338 38.1228V37.3303H30.7333V38.1228H28.5338Z" fill="#4C4C4C"/>
<path d="M32.4053 39.938V35.6011H33.2359L35.6335 38.8412H35.4604C35.4437 38.7135 35.4294 38.5882 35.4175 38.4665C35.4055 38.3448 35.3936 38.2206 35.3829 38.0953C35.3721 37.97 35.365 37.8387 35.3578 37.7051C35.3518 37.5714 35.3459 37.4282 35.3423 37.2778C35.3375 37.1275 35.3363 36.9628 35.3363 36.785V35.6023H36.2469V39.9392H35.4043L32.9578 36.668L33.1929 36.674C33.2132 36.8888 33.2311 37.0714 33.2454 37.2229C33.2598 37.3733 33.2717 37.5046 33.2789 37.6168C33.2872 37.7278 33.2944 37.8256 33.3003 37.908C33.3063 37.9903 33.3111 38.0691 33.3123 38.1431C33.3135 38.2171 33.3159 38.2958 33.3159 38.3782V39.9392H32.4053V39.938Z" fill="#4C4C4C"/>
<path d="M38.6501 39.938V36.4377H37.3862V35.6011H40.8806V36.4377H39.5797V39.938H38.6501Z" fill="#4C4C4C"/>
<path d="M41.1958 39.938L42.8928 35.6011H43.7235L45.4146 39.938H44.461L43.5874 37.6024C43.5624 37.5368 43.5325 37.4521 43.4979 37.3482C43.4633 37.2456 43.4263 37.1358 43.3893 37.0201C43.3523 36.9043 43.3165 36.7945 43.2843 36.6883C43.2509 36.5833 43.2258 36.4949 43.2103 36.4245L43.3774 36.4186C43.3523 36.514 43.3249 36.6119 43.2938 36.7133C43.2628 36.8148 43.2306 36.9174 43.1984 37.0224C43.1649 37.1275 43.1303 37.2301 43.0933 37.3292C43.0563 37.4282 43.0205 37.5249 42.9883 37.6203L42.1147 39.9368H41.1982L41.1958 39.938ZM41.9823 39.0274L42.2854 38.2779H44.2736L44.5839 39.0274H41.9823Z" fill="#4C4C4C"/>
<path d="M46.3931 39.938V35.6011H47.3227V39.1014H49.2859V39.938H46.3931Z" fill="#4C4C4C"/>
<path d="M52.7925 39.938V35.6011H53.7222V39.938H52.7925ZM53.1636 38.1968L53.1696 37.3542H56.0004V38.1968H53.1636ZM55.5242 39.938V35.6011H56.4539V39.938H55.5242Z" fill="#4C4C4C"/>
<path d="M57.9526 39.938V35.6011H60.8825V36.4186H58.8572V39.1193H60.9266V39.9368H57.9526V39.938ZM58.3858 38.1228V37.3303H60.5853V38.1228H58.3858Z" fill="#4C4C4C"/>
<path d="M61.7441 39.938L63.4412 35.6011H64.2718L65.9629 39.938H65.0093L64.1358 37.6024C64.1107 37.5368 64.0809 37.4521 64.0463 37.3482C64.0116 37.2456 63.9747 37.1358 63.9377 37.0201C63.9007 36.9043 63.8649 36.7945 63.8326 36.6883C63.7992 36.5833 63.7742 36.4949 63.7586 36.4245L63.9257 36.4186C63.9007 36.514 63.8732 36.6119 63.8422 36.7133C63.8112 36.8148 63.7789 36.9174 63.7467 37.0224C63.7133 37.1275 63.6787 37.2301 63.6417 37.3292C63.6047 37.4282 63.5689 37.5249 63.5367 37.6203L62.6631 39.9368H61.7465L61.7441 39.938ZM62.5306 39.0274L62.8337 38.2779H64.822L65.1323 39.0274H62.5306Z" fill="#4C4C4C"/>
<path d="M66.9414 39.938V35.6011H67.8711V39.1014H69.8343V39.938H66.9414Z" fill="#4C4C4C"/>
<path d="M71.4513 39.938V36.4377H70.1875V35.6011H73.6818V36.4377H72.381V39.938H71.4513Z" fill="#4C4C4C"/>
<path d="M74.8218 39.938V35.6011H75.7515V39.938H74.8218ZM75.1929 38.1968L75.1989 37.3542H78.0297V38.1968H75.1929ZM77.5535 39.938V35.6011H78.4832V39.938H77.5535Z" fill="#4C4C4C"/>
<path d="M82.2554 39.938V35.6011H84.0956C84.351 35.6011 84.5837 35.6619 84.7926 35.7837C85.0014 35.9054 85.1661 36.0713 85.2879 36.2825C85.4096 36.4938 85.4705 36.7301 85.4705 36.995C85.4705 37.2599 85.4096 37.5058 85.2879 37.7194C85.1661 37.9342 85.0003 38.1049 84.7926 38.2302C84.5837 38.3555 84.351 38.4188 84.0956 38.4188H83.1851V39.9368H82.2554V39.938ZM83.1719 37.5834H83.9894C84.0885 37.5834 84.1768 37.5571 84.2556 37.5058C84.3343 37.4545 84.3964 37.3852 84.4441 37.2981C84.4919 37.211 84.5157 37.112 84.5157 37.001C84.5157 36.89 84.4919 36.7921 84.4441 36.7062C84.3964 36.6215 84.3331 36.5558 84.2556 36.5081C84.1768 36.4603 84.0885 36.4365 83.9894 36.4365H83.1719V37.5822V37.5834Z" fill="#4C4C4C"/>
<path d="M85.7559 39.938L87.4529 35.6011H88.2835L89.9746 39.938H89.0211L88.1475 37.6024C88.1224 37.5368 88.0926 37.4521 88.058 37.3482C88.0234 37.2456 87.9864 37.1358 87.9494 37.0201C87.9124 36.9043 87.8766 36.7945 87.8444 36.6883C87.8109 36.5833 87.7859 36.4949 87.7704 36.4245L87.9374 36.4186C87.9124 36.514 87.8849 36.6119 87.8539 36.7133C87.8229 36.8148 87.7906 36.9174 87.7584 37.0224C87.725 37.1275 87.6904 37.2301 87.6534 37.3292C87.6164 37.4282 87.5806 37.5249 87.5484 37.6203L86.6748 39.9368H85.7582L85.7559 39.938ZM86.5423 39.0274L86.8455 38.2779H88.8337L89.144 39.0274H86.5423Z" fill="#4C4C4C"/>
<path d="M90.9533 39.938V35.6011H92.8736C93.1421 35.6011 93.3855 35.6619 93.6051 35.7837C93.8235 35.9054 93.9966 36.0701 94.1219 36.2766C94.2484 36.483 94.3104 36.7181 94.3104 36.9831C94.3104 37.248 94.2472 37.4795 94.1219 37.692C93.9954 37.9044 93.8235 38.0727 93.6051 38.1968C93.3867 38.3209 93.1421 38.3829 92.8736 38.3829H91.8508V39.938H90.9521H90.9533ZM91.852 37.6275H92.8306C92.9416 37.6275 93.0406 37.6013 93.1254 37.5499C93.2101 37.4986 93.2746 37.4258 93.3199 37.3327C93.3653 37.2396 93.3879 37.1358 93.3879 37.0201C93.3879 36.8959 93.3605 36.7885 93.3068 36.6978C93.2531 36.6071 93.1743 36.5355 93.0717 36.4842C92.9678 36.4329 92.8485 36.4066 92.7124 36.4066H91.8508V37.6275H91.852ZM93.413 39.938L92.3103 37.9808L93.2638 37.8256L94.4907 39.9439L93.413 39.938Z" fill="#4C4C4C"/>
<path d="M96.4416 39.938V36.4377H95.1777V35.6011H98.6721V36.4377H97.3712V39.938H96.4416Z" fill="#4C4C4C"/>
<path d="M99.812 39.938V35.6011H100.643L103.04 38.8412H102.867C102.85 38.7135 102.836 38.5882 102.824 38.4665C102.812 38.3448 102.8 38.2206 102.79 38.0953C102.779 37.97 102.772 37.8387 102.765 37.7051C102.759 37.5714 102.753 37.4282 102.749 37.2778C102.744 37.1275 102.743 36.9628 102.743 36.785V35.6023H103.654V39.9392H102.811L100.365 36.668L100.6 36.674C100.62 36.8888 100.638 37.0714 100.652 37.2229C100.667 37.3733 100.678 37.5046 100.686 37.6168C100.694 37.7278 100.701 37.8256 100.707 37.908C100.713 37.9903 100.718 38.0691 100.719 38.1431C100.72 38.2171 100.723 38.2958 100.723 38.3782V39.9392H99.812V39.938Z" fill="#4C4C4C"/>
<path d="M105.151 39.938V35.6011H108.081V36.4186H106.056V39.1193H108.125V39.9368H105.151V39.938ZM105.585 38.1228V37.3303H107.784V38.1228H105.585Z" fill="#4C4C4C"/>
<path d="M109.457 39.938V35.6011H111.377C111.646 35.6011 111.889 35.6619 112.109 35.7837C112.327 35.9054 112.5 36.0701 112.626 36.2766C112.752 36.483 112.814 36.7181 112.814 36.9831C112.814 37.248 112.751 37.4795 112.626 37.692C112.499 37.9044 112.327 38.0727 112.109 38.1968C111.891 38.3209 111.646 38.3829 111.377 38.3829H110.355V39.938H109.456H109.457ZM110.356 37.6275H111.335C111.445 37.6275 111.545 37.6013 111.629 37.5499C111.714 37.4986 111.778 37.4258 111.824 37.3327C111.869 37.2396 111.892 37.1358 111.892 37.0201C111.892 36.8959 111.864 36.7885 111.811 36.6978C111.757 36.6071 111.678 36.5355 111.576 36.4842C111.472 36.4329 111.352 36.4066 111.216 36.4066H110.355V37.6275H110.356ZM111.917 39.938L110.814 37.9808L111.768 37.8256L112.995 39.9439L111.917 39.938Z" fill="#4C4C4C"/>
</g>
<defs>
<clipPath id="clip0_91_399">
<rect width="112.995" height="40" fill="white"/>
</clipPath>
</defs>
</svg>
