<?xml version="1.0" encoding="utf-8"?>
<!-- Generator: Adobe Illustrator 26.0.2, SVG Export Plug-In . SVG Version: 6.00 Build 0)  -->
<!DOCTYPE svg PUBLIC "-//W3C//DTD SVG 1.1//EN" "http://www.w3.org/Graphics/SVG/1.1/DTD/svg11.dtd" [
	<!ENTITY ns_extend "http://ns.adobe.com/Extensibility/1.0/">
	<!ENTITY ns_ai "http://ns.adobe.com/AdobeIllustrator/10.0/">
	<!ENTITY ns_graphs "http://ns.adobe.com/Graphs/1.0/">
	<!ENTITY ns_vars "http://ns.adobe.com/Variables/1.0/">
	<!ENTITY ns_imrep "http://ns.adobe.com/ImageReplacement/1.0/">
	<!ENTITY ns_sfw "http://ns.adobe.com/SaveForWeb/1.0/">
	<!ENTITY ns_custom "http://ns.adobe.com/GenericCustomNamespace/1.0/">
	<!ENTITY ns_adobe_xpath "http://ns.adobe.com/XPath/1.0/">
]>
<svg version="1.1" id="Layer_1" xmlns:x="&ns_extend;" xmlns:i="&ns_ai;" xmlns:graph="&ns_graphs;"
	 xmlns="http://www.w3.org/2000/svg" xmlns:xlink="http://www.w3.org/1999/xlink" x="0px" y="0px" viewBox="0 0 718.9 540.5"
	 style="enable-background:new 0 0 718.9 540.5;" xml:space="preserve">
<style type="text/css">
	.st0{fill:#004C71;}
	.st1{fill:#EF7D00;}
	.st2{fill:#00699D;}
	.st3{fill:#DC6A02;}
	.st4{fill:#CE470A;}
	.st5{fill:#F18A00;}
</style>
<metadata>
	<sfw  xmlns="&ns_sfw;">
		<slices></slices>
		<sliceSourceBounds  bottomLeftOrigin="true" height="382.8" width="530.9" x="82.9" y="119.2"></sliceSourceBounds>
	</sfw>
</metadata>
<g id="Logo">
	<path class="st0" d="M148.4,410.3l-3.5,10.5h-4.5l11.4-33.5h5.2l11.4,33.5h-4.6l-3.6-10.5L148.4,410.3z M159.3,406.9l-3.3-9.6
		c-0.7-2.1-1.3-4.2-1.8-6.1h-0.1c-0.5,1.9-1,4-1.7,6l-3.3,9.7L159.3,406.9z"/>
	<polygon class="st0" points="122.4,405.1 109.5,405.1 109.5,417.2 124,417.2 124,420.8 105.1,420.8 105.1,387.3 123.2,387.3 
		123.2,390.9 109.5,390.9 109.5,401.5 122.4,401.5 	"/>
	<path class="st0" d="M186.1,415.5c2.3,1.4,5,2.1,7.7,2.1c4.4,0,7-2.3,7-5.7c0-3.1-1.8-5-6.3-6.6c-5.4-1.9-8.9-4.8-8.9-9.5
		c0-5.3,4.3-9,10.8-9c2.6-0.1,5.1,0.5,7.4,1.7l-1.2,3.5c-1.9-1.1-4.1-1.6-6.3-1.6c-4.6,0-6.3,2.7-6.3,5c0,3.1,2,4.7,6.6,6.4
		c5.6,2.2,8.6,5,8.6,9.8c0,5.2-3.8,9.6-11.7,9.6c-3,0-5.9-0.7-8.6-2.1L186.1,415.5z"/>
	<path class="st0" d="M232.2,420.8v-14.2l-10.6-19.3h5l4.7,9.2c1.3,2.5,2.3,4.6,3.3,6.9h0.1c0.9-2.2,2-4.4,3.3-6.9l4.9-9.2h4.9
		l-11.2,19.2v14.2L232.2,420.8L232.2,420.8z"/>
	<rect x="287.9" y="387.3" class="st0" width="4.4" height="33.5"/>
	<path class="st0" d="M313.2,420.8v-33.5h4.8l10.7,16.9c2.2,3.5,4.2,7.1,5.9,10.9l0.1-0.1c-0.4-4.5-0.5-8.6-0.5-13.7v-14h4.1v33.5
		h-4.4l-10.6-16.9c-2.3-3.6-4.4-7.3-6.2-11.2l-0.2,0.1c0.3,4.3,0.3,8.3,0.3,13.8v14.3L313.2,420.8L313.2,420.8z"/>
	<path class="st0" d="M366.7,420.8l-11-33.5h4.7l5.2,16.4c1.5,4.5,2.6,8.6,3.6,12.5h0.1c1-3.9,2.3-8.1,3.8-12.5l5.6-16.5h4.6
		l-12,33.5L366.7,420.8L366.7,420.8z"/>
	<path class="st0" d="M429.1,403.7c0,11.5-7,17.6-15.5,17.6c-8.9,0-15-6.9-15-16.9c0-10.6,6.5-17.5,15.5-17.5
		C423.2,386.7,429.1,393.7,429.1,403.7 M403.1,404.3c0,7.2,3.9,13.5,10.7,13.5c6.9,0,10.7-6.3,10.7-13.9c0-6.6-3.5-13.6-10.7-13.6
		C406.6,390.3,403.1,397,403.1,404.3"/>
	<rect x="448.1" y="387.3" class="st0" width="4.4" height="33.5"/>
	<path class="st0" d="M496.8,419.7c-2.8,1.1-5.8,1.7-8.9,1.6c-9.4,0-16.4-5.9-16.4-16.9c0-10.5,7.1-17.5,17.4-17.5
		c2.7-0.1,5.5,0.4,8,1.5l-1.1,3.5c-2.1-0.9-4.4-1.4-6.7-1.4c-7.9,0-13,5.1-13,13.8c0,8.2,4.7,13.4,12.8,13.4
		c2.4,0.1,4.9-0.4,7.1-1.4L496.8,419.7z"/>
	<rect x="515.6" y="387.3" class="st0" width="4.4" height="33.5"/>
	<path class="st0" d="M540.9,420.8v-33.5h4.8l10.7,16.9c2.2,3.5,4.2,7.1,5.9,10.9l0.1-0.1c-0.4-4.5-0.5-8.6-0.5-13.7v-14h4.1v33.5
		h-4.4L551,403.9c-2.3-3.6-4.4-7.3-6.2-11.2l-0.2,0.1c0.3,4.3,0.3,8.3,0.3,13.8v14.3L540.9,420.8L540.9,420.8z"/>
	<path class="st0" d="M612.5,419.2c-3.3,1.2-6.8,1.9-10.3,1.8c-5.1,0-9.2-1.3-12.6-4.4c-2.9-2.8-4.7-7.2-4.7-12.5
		c0-10,6.9-17.3,18.1-17.3c2.9-0.1,5.7,0.5,8.4,1.6l-1.1,3.5c-2.3-1-4.9-1.5-7.4-1.5c-8.1,0-13.4,5.1-13.4,13.4
		c0,8.5,5.1,13.5,12.9,13.5c2,0.1,3.9-0.2,5.7-0.9v-9.9h-6.8v-3.5h11.1V419.2z"/>
	<path class="st0" d="M106.1,351.6c6.5,2.6,16,4.8,28.1,6.4c12.2,1.6,24.5,2.5,36.8,2.6c10.2,0,19.3-1.2,26.9-3.5
		c7.5-2.3,13.5-5.4,17.9-9c4.5-3.8,8.1-8.5,10.7-13.8c2.7-5.5,4.6-11.4,5.6-17.4c1-6.8,1.5-13.7,1.5-20.6c0-22.6-3.5-38.8-10.3-48.4
		c-6.6-9.1-18-13.7-34.1-13.7c-15,0-26.9,2.4-39.4,14.7l-9.3,9l3.8-12.4c2.6-8.6,2.4-14.5,2.1-25.2v-34.2h-40.2L106.1,351.6
		L106.1,351.6z M166.6,335.1c-5.9,0-11.7-0.6-17.5-1.7l-2.7-0.5v-62.1l1.8-1c8.3-4.5,15.9-6.8,22.5-6.8c8.7,0,14.7,2.5,17.7,7.6
		c2.8,4.6,4.2,13,4.2,25.8c0,14.3-1.5,23.8-4.4,29.1c-3.2,5.8-9,9-17.4,9.3C169.3,335,168,335.1,166.6,335.1"/>
	<path class="st0" d="M249.6,357.6h38.9V238.3h-38.9V357.6z M258.3,180.7c-7.1,0-10.1,3.1-10.1,10.3v13c0,5.6,4.5,10.1,10.1,10.1
		h20.1c6.9,0,9.9-3,9.9-10V191c0-7.2-2.9-10.3-9.9-10.3L258.3,180.7z"/>
	<path class="st0" d="M308.5,186v142.7c0,10.1,3.1,17.7,9.4,23.3c6.4,5.6,15.4,8.5,26.8,8.5c13.5,0,23.6-1.5,30.1-4.4l-4.4-25.3
		h-6.2c-14.5,0-16.7-9-16.7-14.3V186H308.5z"/>
	<path class="st0" d="M383.7,186v142.7c0,10.1,3.1,17.7,9.4,23.3c6.4,5.6,15.4,8.5,26.8,8.5c13.5,0,23.6-1.5,30.1-4.4l-4.4-25.3
		h-6.2c-14.5,0-16.7-9-16.7-14.3V186H383.7z"/>
	<path class="st1" d="M466.2,357.6h38.9V238.3h-38.9V357.6z M475,180.7c-7.1,0-10.2,3.1-10.2,10.3v13c0,5.6,4.5,10.1,10.1,10.1
		c0,0,0,0,0,0h20.1c6.9,0,9.9-3,9.9-10V191c0-7.2-2.9-10.3-9.9-10.3L475,180.7z"/>
	<path class="st1" d="M519.8,259.8h21.5V328c0,10.5,3,18.3,9.2,23.9s15.1,8.6,26.4,8.6c15.1,0,27.3-1.6,36.5-4.7l-4.2-25H597
		c-5.4,0-9.1-1.1-11.7-3.3c-2.5-2.2-3.8-5.9-3.8-11v-56.8h32.2v-22.8h-32.2v-33.6h-40.2v34.1l-21.5,1L519.8,259.8L519.8,259.8z"/>
	<polygon class="st2" points="313.2,108.3 295.3,85.7 287,108.2 287.1,108.2 	"/>
	<polygon class="st3" points="295.3,85.7 257.3,85.7 287,108.2 	"/>
	<polygon class="st4" points="276.3,132.3 287,108.2 257.3,85.7 200.3,127 	"/>
	<polygon class="st5" points="196.6,176 276.3,132.3 207.9,38.5 202.7,129.3 	"/>
	<polygon class="st4" points="202.7,129.3 156.9,233.8 196.6,176 	"/>
	<path class="st3" d="M181.2,91.4V99h-5.9l53.3,58.9L207.9,38.5h-87.6l30.6,33.7v-3.4h7.6v7.6h-3.8l19,20.9v-5.7L181.2,91.4
		L181.2,91.4z M166.1,53.7h7.6v7.6h-7.6V53.7z"/>
	<path class="st4" d="M179.4,91.4l28.5-52.9l-73.5,15.4l16.4,18.2v-3.3h7.6v7.6h-3.7l18.8,20.7v-5.6H179.4z M166.1,53.7h7.6v7.6
		h-7.6V53.7z"/>
	<rect x="173.6" y="106.6" class="st4" width="7.6" height="7.6"/>
	<rect x="188.8" y="106.6" class="st4" width="7.6" height="7.6"/>
	<rect x="166.1" y="99" class="st4" width="7.6" height="7.6"/>
	<rect x="188.8" y="121.7" class="st4" width="7.6" height="7.6"/>
	<polygon class="st4" points="158.5,91.4 166.1,91.4 166.1,83.9 166.1,76.4 158.5,76.4 150.9,76.4 150.9,83.9 150.9,91.4 	"/>
	<rect x="150.9" y="99" class="st4" width="7.6" height="7.6"/>
	<polygon class="st4" points="150.9,61.3 143.3,61.3 143.3,53.7 135.8,53.7 135.8,61.3 135.8,68.8 143.3,68.8 143.3,76.4 
		150.9,76.4 150.9,68.8 	"/>
	<rect x="143.3" y="91.4" class="st4" width="7.6" height="7.6"/>
	<rect x="135.8" y="76.4" class="st4" width="7.6" height="7.6"/>
	<rect x="128.2" y="68.8" class="st4" width="7.6" height="7.6"/>
	<rect x="128.2" y="83.9" class="st4" width="7.6" height="7.6"/>
	<rect x="128.2" y="99" class="st4" width="7.6" height="7.6"/>
	<rect x="120.7" y="53.7" class="st4" width="7.6" height="7.6"/>
	<rect x="120.7" y="91.4" class="st4" width="7.6" height="7.6"/>
	<rect x="113.2" y="61.3" class="st4" width="7.6" height="7.6"/>
	<rect x="113.2" y="114.2" class="st4" width="7.6" height="7.6"/>
	<rect x="105.6" y="76.4" class="st4" width="7.6" height="7.6"/>
	<rect x="173.6" y="46.1" class="st3" width="7.6" height="7.6"/>
	<rect x="173.6" y="76.4" class="st3" width="7.6" height="7.6"/>
	<polygon class="st3" points="173.6,99 173.6,106.6 181.2,106.6 181.2,114.2 188.8,114.2 188.8,106.6 188.8,99 181.2,99 	"/>
	<polygon class="st3" points="173.6,83.9 166.1,83.9 166.1,91.4 166.1,99 173.6,99 173.6,91.4 	"/>
	<polygon class="st3" points="166.1,114.2 166.1,121.7 173.6,121.7 173.6,129.3 181.2,129.3 181.2,121.7 188.8,121.7 188.8,114.2 
		181.2,114.2 173.6,114.2 	"/>
	<rect x="158.5" y="68.8" class="st3" width="7.6" height="7.6"/>
	<path class="st3" d="M196.3,121.7v7.6h7.6v-7.6L196.3,121.7z M196.3,114.2h-7.5v7.5h7.5V114.2z"/>
	<rect x="181.2" y="129.3" class="st3" width="7.6" height="7.6"/>
	<rect x="150.9" y="53.7" class="st3" width="7.6" height="7.6"/>
	<rect x="150.9" y="91.4" class="st3" width="7.6" height="7.6"/>
	<rect x="150.9" y="121.7" class="st3" width="7.6" height="7.6"/>
	<rect x="143.3" y="76.4" class="st3" width="7.6" height="7.6"/>
	<rect x="135.8" y="68.8" class="st3" width="7.6" height="7.6"/>
	<polygon class="st3" points="135.8,91.4 135.8,99 143.3,99 143.3,91.4 143.3,83.9 135.8,83.9 	"/>
	<polygon class="st3" points="135.8,53.7 135.8,46.1 128.2,46.1 128.2,38.6 120.7,38.6 113.2,38.6 105.6,38.6 105.6,46.1 98,46.1 
		98,53.7 98,61.3 105.6,61.3 105.6,53.7 113.2,53.7 113.2,46.1 120.7,46.1 120.7,53.7 128.2,53.7 128.2,61.3 135.8,61.3 	"/>
	<polygon class="st3" points="120.7,68.8 120.7,76.4 120.7,83.9 128.2,83.9 128.2,76.4 128.2,68.8 128.2,61.3 120.7,61.3 	"/>
	<rect x="113.2" y="53.7" class="st3" width="7.6" height="7.6"/>
	<polygon class="st5" points="158.5,99 158.5,106.6 158.5,114.2 166.1,114.2 166.1,106.6 166.1,99 	"/>
	<rect x="143.3" y="99" class="st5" width="7.6" height="7.6"/>
	<rect x="135.8" y="114.2" class="st5" width="7.6" height="7.6"/>
	<rect x="128.2" y="106.6" class="st5" width="7.6" height="7.6"/>
	<rect x="128.2" y="121.7" class="st5" width="7.6" height="7.6"/>
	<rect x="120.7" y="83.9" class="st5" width="7.6" height="7.6"/>
	<polygon class="st5" points="120.7,99 113.2,99 113.2,106.6 120.7,106.6 128.2,106.6 128.2,99 	"/>
	<rect x="113.2" y="68.8" class="st5" width="7.6" height="7.6"/>
	<rect x="105.6" y="61.3" class="st5" width="7.6" height="7.6"/>
	<polygon class="st5" points="113.2,83.9 105.6,83.9 98,83.9 98,91.4 105.6,91.4 113.2,91.4 	"/>
	<rect x="90.4" y="38.6" class="st5" width="7.6" height="7.6"/>
	<rect x="90.4" y="68.8" class="st5" width="7.6" height="7.6"/>
	<rect x="90.4" y="99" class="st5" width="7.6" height="7.6"/>
	<rect x="82.9" y="46.1" class="st5" width="7.6" height="7.6"/>
	<rect x="82.9" y="61.3" class="st5" width="7.6" height="7.6"/>
</g>
</svg>
