<svg xmlns="http://www.w3.org/2000/svg" width="114" height="34" fill="none"><g clip-path="url(#a)"><path fill="#fff" d="M46.301 33.502c-1.369 0-2.436-.385-3.201-1.19-.87-.853-1.334-2.165-1.353-3.838.002-.94.113-1.875.33-2.79l4.325-21.162 6.227-.914s-4.535 21.714-4.645 22.26c-.357 1.809-.117 2.742.254 3.158 2.062 2.305 6.872-1.496 6.861-3.453.182 1.57-2.64 7.958-8.798 7.928ZM16.752 33.475c-2.934-.965-3.348-4.043-2.771-6.654.138-.878.4-1.955.68-3.291.296-1.39.533-2.47.678-3.238a13.25 13.25 0 0 0 .237-2.101c-.013-1.44-.534-2.203-1.545-2.195-.707 0-2.532.592-3.284 4 0 0-.387 2.355-1.646 7.734C7.44 36.39 3.437 33.54.004 32.245c1-.069 2.198-1.432 2.822-3.712 2.135-7.795 5.07-23.936 5.07-23.936l6.445-1.112-2.439 10.99a7.15 7.15 0 0 1 2.63-1.976 6.818 6.818 0 0 1 2.3-.44c1.433-.013 2.561.344 3.437 1.102.877.813 1.334 2.05 1.358 3.694a18.69 18.69 0 0 1-.52 3.845c-.107.456-.246 1.134-.438 2.065-.403 1.538-1.355 5.216.021 6.752 1.76 1.968 4.607-.048 5.482-3.317-1.614 7.168-7.045 8.054-9.42 7.275Z"/><path fill="#fff" d="M60.635 33.368c-4.557-.125-6.649-3.347-6.649-6.63.013-.968.09-1.933.23-2.89.147-1.087.391-2.159.73-3.201.841-2.59 1.988-4.627 3.496-6.16a9.215 9.215 0 0 1 6.714-2.844c1.673-.016 2.935.379 3.762 1.182a3.733 3.733 0 0 1 .984 2.627c0 1.013-.186 1.773-.637 2.336a1.974 1.974 0 0 1-1.566.773 2.583 2.583 0 0 1-1.473-.493 6.81 6.81 0 0 0 .486-2.488 2.235 2.235 0 0 0-.315-1.264.944.944 0 0 0-.867-.449c-.8 0-1.665.726-2.564 2.2a21.31 21.31 0 0 0-2.252 4.935c-.67 2.09-1.496 5.822.187 7.822 2.375 2.821 6.774.845 8.142-1.462-.218.854-2.345 6.172-8.409 6.006ZM79.71 31.883c-.859.363-3.788 1.352-4.751 1.36-1.368.01-2.435-.386-3.202-1.19-.87-.853-1.334-2.165-1.35-3.837-.004-.94.104-1.876.32-2.79l2.775-12.83 6.075-.774-3.095 14.364c-1.067 4.849 3.228 5.697 3.228 5.697Z"/><path fill="#fff" d="M108.344 33.795c-1.721 0-3.044-.48-3.863-1.435a4.98 4.98 0 0 1-1.145-3.283c.004-.752.072-1.503.206-2.243.144-.861.384-2.467.677-3.787.291-1.37.534-2.437.681-3.2.138-.686.216-1.382.234-2.08 0-1.42-.533-2.174-1.539-2.163-.71 0-1.363.365-1.966 1.13a8.38 8.38 0 0 0-1.294 2.798l-2.77 13.55-6.08.054L94.45 18.52c.084-.35.115-.709.09-1.067.01-.453-.08-.902-.266-1.315a1.174 1.174 0 0 0-1.02-.55c-.8 0-1.464.42-2.067 1.185a8.353 8.353 0 0 0-1.291 2.798l-2.772 13.55-7.82.059a2.068 2.068 0 0 0 2.087-1.728l3.801-18.82 6.209-.673-.438 2.182a7.529 7.529 0 0 1 2.668-2 6.467 6.467 0 0 1 2.427-.475c1.166 0 2.135.234 2.844.784.766.603 1.281 1.56 1.545 2.773a8.355 8.355 0 0 1 3.116-3.016 6.344 6.344 0 0 1 2.732-.632c1.419 0 2.537.333 3.353 1.085.87.8 1.334 2.014 1.35 3.635a18.62 18.62 0 0 1-.475 3.806c-.144.659-1.067 5.107-1.312 6.225-.979 4.534.749 5.494 1.849 5.531 1.408.045 2.934-1.333 2.934-1.333-1.649 2.197-3.681 3.272-5.65 3.272ZM35.307 30.44c-2.025.016-4.987-1.123-4.194-5.58a11.207 11.207 0 0 0 3.641-.842 11.688 11.688 0 0 0 3.127-1.952 8.84 8.84 0 0 0 2.166-2.806c.5-1.063.75-2.226.731-3.4 0-1.216-.322-2.134-.936-2.78-.768-.8-2.038-1.197-3.762-1.18-2.683.023-4.956.954-6.765 2.845a14.7 14.7 0 0 0-2.073 2.803 19.505 19.505 0 0 0-1.44 3.358 18.195 18.195 0 0 0-.734 3.2 22.322 22.322 0 0 0-.227 2.888c0 4.878 4.463 6.521 6.645 6.63 7.187.363 10.576-5.518 11.485-7.902.01-.003-3.02 4.755-7.664 4.718Zm-3.263-10.806c.306-.968.704-1.904 1.19-2.795.379-.75.869-1.438 1.454-2.04.552-.513 1.067-.769 1.563-.774a.801.801 0 0 1 .814.448c.193.392.285.827.267 1.264a6.294 6.294 0 0 1-.483 2.54 9.139 9.139 0 0 1-1.35 2.24 6.597 6.597 0 0 1-1.961 1.586c-.708.37-1.48.6-2.276.677.207-1.061.468-2.111.782-3.146Z"/><path fill="#FFD494" d="M78.277 7.864a3.83 3.83 0 1 0 .001-7.66 3.83 3.83 0 0 0 0 7.66Z" class="logo-dot"/></g><defs><clipPath id="a"><path fill="#fff" d="M0 .205h114v33.59H0z"/></clipPath></defs></svg>