<svg width="92" height="66" viewBox="0 0 92 66" fill="none" xmlns="http://www.w3.org/2000/svg">
<path d="M11.8704 64.0768L11.2679 65.8844H10.4932L12.4557 60.1172H13.3509L15.3135 65.8844H14.5216L13.9018 64.0768H11.8704ZM13.7469 63.4914L13.1788 61.8387C13.0583 61.4772 12.955 61.1157 12.8689 60.7886H12.8517C12.7656 61.1157 12.6795 61.4772 12.559 61.8215L11.9909 63.4914H13.7469Z" fill="#004C71"/>
<path d="M7.3943 63.1816H5.1735V65.2646H7.66975V65.8844H4.41602V60.1172H7.53203V60.7369H5.1735V62.5618H7.3943V63.1816Z" fill="#004C71"/>
<path d="M18.3606 64.974C18.7566 65.215 19.2214 65.3355 19.6862 65.3355C20.4437 65.3355 20.8913 64.9395 20.8913 64.3542C20.8913 63.8205 20.5814 63.4934 19.8067 63.218C18.8771 62.8909 18.2746 62.3916 18.2746 61.5825C18.2746 60.6701 19.0148 60.0331 20.1338 60.0331C20.5814 60.0159 21.0118 60.1192 21.4078 60.3258L21.2012 60.9283C20.8741 60.7389 20.4954 60.6529 20.1166 60.6529C19.3247 60.6529 19.032 61.1177 19.032 61.5136C19.032 62.0473 19.3764 62.3228 20.1683 62.6154C21.1323 62.9942 21.6488 63.4762 21.6488 64.3026C21.6488 65.1978 20.9946 65.9553 19.6346 65.9553C19.1181 65.9553 18.6189 65.8347 18.1541 65.5937L18.3606 64.974Z" fill="#004C71"/>
<path d="M26.297 65.8844V63.4398L24.4722 60.1172H25.3329L26.1421 61.701C26.3659 62.1314 26.538 62.4929 26.7102 62.8889H26.7274C26.8823 62.5101 27.0717 62.1314 27.2955 61.701L28.1391 60.1172H28.9826L27.0545 63.4226V65.8672L26.297 65.8844Z" fill="#004C71"/>
<path d="M36.6437 60.1172H35.8862V65.8844H36.6437V60.1172Z" fill="#004C71"/>
<path d="M40.2417 65.8844V60.1172H41.068L42.9101 63.0266C43.2888 63.6292 43.6332 64.2489 43.9258 64.9031L43.943 64.8859C43.8742 64.1112 43.857 63.4054 43.857 62.5274V60.1172H44.5628V65.8844H43.8053L41.9805 62.975C41.5845 62.3552 41.223 61.7182 40.9131 61.0468L40.8787 61.064C40.9303 61.8043 40.9303 62.4929 40.9303 63.4398V65.9016L40.2417 65.8844Z" fill="#004C71"/>
<path d="M49.4518 65.886L47.5581 60.1188H48.3672L49.2624 62.9421C49.5207 63.7168 49.71 64.4227 49.8822 65.0941H49.8994C50.0716 64.4227 50.2954 63.6996 50.5536 62.9421L51.5177 60.1016H52.3096L50.2437 65.8688L49.4518 65.886Z" fill="#004C71"/>
<path d="M60.1946 62.9398C60.1946 64.9196 58.9895 65.9697 57.5262 65.9697C55.994 65.9697 54.9438 64.7819 54.9438 63.0603C54.9438 61.2355 56.0629 60.0476 57.6123 60.0476C59.1789 60.0132 60.1946 61.2183 60.1946 62.9398ZM55.7185 63.0431C55.7185 64.2826 56.3899 65.3672 57.5606 65.3672C58.7485 65.3672 59.4027 64.2826 59.4027 62.9742C59.4027 61.838 58.8001 60.6329 57.5606 60.6329C56.3211 60.6329 55.7185 61.7864 55.7185 63.0431Z" fill="#004C71"/>
<path d="M64.2228 60.1172H63.4653V65.8844H64.2228V60.1172Z" fill="#004C71"/>
<path d="M71.8494 65.6957C71.3674 65.8851 70.8509 65.9884 70.3172 65.9712C68.699 65.9712 67.4939 64.9555 67.4939 63.0617C67.4939 61.2541 68.7162 60.049 70.4894 60.049C70.9542 60.0318 71.4363 60.1179 71.8666 60.3073L71.6773 60.9098C71.3157 60.7549 70.9198 60.6688 70.5238 60.6688C69.1638 60.6688 68.2858 61.5468 68.2858 63.0445C68.2858 64.4562 69.0949 65.3514 70.4894 65.3514C70.9026 65.3686 71.333 65.2826 71.7117 65.1104L71.8494 65.6957Z" fill="#004C71"/>
<path d="M75.8434 60.1172H75.0859V65.8844H75.8434V60.1172Z" fill="#004C71"/>
<path d="M79.4414 65.8844V60.1172H80.2677L82.1098 63.0266C82.4886 63.6292 82.8329 64.2489 83.1255 64.9031L83.1427 64.8859C83.0739 64.1112 83.0567 63.4054 83.0567 62.5274V60.1172H83.7625V65.8844H83.005L81.1802 62.975C80.7842 62.3552 80.4227 61.7182 80.1128 61.0468L80.0784 61.064C80.13 61.8043 80.13 62.4929 80.13 63.4398V65.9016L79.4414 65.8844Z" fill="#004C71"/>
<path d="M91.7676 65.6109C91.1995 65.8175 90.5969 65.938 89.9944 65.9208C89.1164 65.9208 88.4106 65.697 87.8252 65.1633C87.326 64.6813 87.0161 63.9238 87.0161 63.0114C87.0161 61.2898 88.204 60.0331 90.1321 60.0331C90.6314 60.0159 91.1134 60.1192 91.5782 60.3086L91.3889 60.9111C90.9929 60.7389 90.5453 60.6529 90.1149 60.6529C88.7205 60.6529 87.808 61.5309 87.808 62.9597C87.808 64.4231 88.686 65.2838 90.0288 65.2838C90.3731 65.3011 90.7002 65.2494 91.0101 65.1289V63.4246H89.8395V62.822H91.7504V65.6109H91.7676Z" fill="#004C71"/>
<path d="M4.58813 53.9722C5.70714 54.4198 7.34262 54.7985 9.4257 55.074C11.526 55.3494 13.6435 55.5044 15.761 55.5216C17.517 55.5216 19.0836 55.315 20.392 54.919C21.6832 54.5231 22.7161 53.9894 23.4736 53.3696C24.2483 52.7155 24.868 51.9063 25.3156 50.9939C25.7805 50.047 26.1076 49.0313 26.2797 47.9984C26.4519 46.8277 26.5379 45.6399 26.5379 44.452C26.5379 40.5613 25.9354 37.7724 24.7647 36.1197C23.6285 34.5531 21.6659 33.7611 18.8942 33.7611C16.3119 33.7611 14.2633 34.1743 12.1113 36.2918L10.5103 37.8412L11.1645 35.7065C11.6121 34.226 11.5776 33.2102 11.526 31.3682V25.4805H4.60535L4.58813 53.9722ZM15.0035 51.1316C13.9878 51.1316 12.9893 51.0283 11.9908 50.839L11.526 50.7529V40.062L11.8359 39.8899C13.2648 39.1152 14.5731 38.7192 15.7094 38.7192C17.2071 38.7192 18.2401 39.1496 18.7565 40.0276C19.2386 40.8195 19.4796 42.2656 19.4796 44.4692C19.4796 46.931 19.2213 48.5665 18.7221 49.4789C18.1712 50.4774 17.1727 51.0283 15.7266 51.08C15.4684 51.1144 15.2446 51.1316 15.0035 51.1316Z" fill="#004C71"/>
<path d="M29.2925 55.0051H35.9894V34.4669H29.2925V55.0051ZM30.7903 24.5508C29.568 24.5508 29.0515 25.0845 29.0515 26.324V28.562C29.0515 29.5261 29.8262 30.3008 30.7903 30.3008H34.2506C35.4385 30.3008 35.9549 29.7843 35.9549 28.5792V26.324C35.9549 25.0845 35.4557 24.5508 34.2506 24.5508H30.7903Z" fill="#004C71"/>
<path d="M39.4326 25.4648V50.0314C39.4326 51.7702 39.9663 53.0786 41.0509 54.0426C42.1527 55.0067 43.7021 55.506 45.6646 55.506C47.9887 55.506 49.7275 55.2477 50.8465 54.7485L50.089 50.3929H49.0217C46.5254 50.3929 46.1467 48.8435 46.1467 47.9311V25.4648H39.4326Z" fill="#004C71"/>
<path d="M52.3784 25.4648V50.0314C52.3784 51.7702 52.9121 53.0786 53.9967 54.0426C55.0985 55.0067 56.6479 55.506 58.6104 55.506C60.9345 55.506 62.6733 55.2477 63.7923 54.7485L63.0348 50.3929H61.9675C59.4712 50.3929 59.0925 48.8435 59.0925 47.9311V25.4648H52.3784Z" fill="#004C71"/>
<path d="M66.5814 55.0051H73.2782V34.4669H66.5814V55.0051ZM68.0963 24.5508C66.874 24.5508 66.3403 25.0845 66.3403 26.324V28.562C66.3403 29.5261 67.115 30.3008 68.0791 30.3008H71.5394C72.7273 30.3008 73.2438 29.7843 73.2438 28.5792V26.324C73.2438 25.0845 72.7445 24.5508 71.5394 24.5508H68.0963Z" fill="#EF7D00"/>
<path d="M75.8088 38.1682H79.5102V49.9092C79.5102 51.7168 80.0266 53.0596 81.094 54.0237C82.1614 54.9878 83.6936 55.5042 85.6389 55.5042C88.2385 55.5042 90.3388 55.2288 91.9226 54.6951L91.1995 50.3912H89.0992C88.1696 50.3912 87.5326 50.2019 87.085 49.8231C86.6546 49.4444 86.4308 48.8074 86.4308 47.9294V38.151H91.9742V34.2258H86.4308V28.4414H79.5102V34.3119L75.8088 34.4841V38.1682Z" fill="#EF7D00"/>
<path d="M40.2417 12.086L37.1601 8.19531L35.7312 12.0688H35.7484L40.2417 12.086Z" fill="#00699D"/>
<path d="M37.1601 8.19531H30.6182L35.7312 12.0688L37.1601 8.19531Z" fill="#DC6A02"/>
<path d="M33.889 16.2178L35.731 12.0688L30.618 8.19531L20.8052 15.3053L33.889 16.2178Z" fill="#CE470A"/>
<path d="M20.1682 23.7417L33.889 16.2185L22.1136 0.0703125L21.2184 15.702L20.1682 23.7417Z" fill="#F18A00"/>
<path d="M21.2185 15.7031L13.3337 33.6934L20.1683 23.7428L21.2185 15.7031Z" fill="#CE470A"/>
<path d="M17.517 9.17734V10.4857H16.5013L25.6771 20.6257L22.1135 0.0703125H7.03271L12.3007 5.87195V5.28662H13.609V6.595H12.9549L16.2258 10.1931V9.21177L17.517 9.17734ZM14.9174 2.68708H16.2258V3.99546H14.9174V2.68708Z" fill="#DC6A02"/>
<path d="M17.2072 9.17734L22.1136 0.0703125L9.46021 2.72151L12.2836 5.85474V5.28662H13.5919V6.595H12.955L16.1915 10.1586V9.19455H17.2072V9.17734ZM14.9175 2.68708H16.2259V3.99546H14.9175V2.68708Z" fill="#CE470A"/>
<path d="M17.5171 11.793H16.2087V13.1014H17.5171V11.793Z" fill="#CE470A"/>
<path d="M20.1338 11.793H18.8254V13.1014H20.1338V11.793Z" fill="#CE470A"/>
<path d="M16.2259 10.4844H14.9175V11.7928H16.2259V10.4844Z" fill="#CE470A"/>
<path d="M20.1338 14.3945H18.8254V15.7029H20.1338V14.3945Z" fill="#CE470A"/>
<path d="M13.6092 9.17608H14.9175V7.88492V6.59375H13.6092H12.3008V7.88492V9.17608H13.6092Z" fill="#CE470A"/>
<path d="M13.6092 10.4844H12.3008V11.7928H13.6092V10.4844Z" fill="#CE470A"/>
<path d="M12.3007 3.99588H10.9923V2.6875H9.70117V3.99588V5.28705H10.9923V6.59543H12.3007V5.28705V3.99588Z" fill="#CE470A"/>
<path d="M12.3008 9.17578H10.9924V10.4842H12.3008V9.17578Z" fill="#CE470A"/>
<path d="M11.0096 6.59375H9.70117V7.90213H11.0096V6.59375Z" fill="#CE470A"/>
<path d="M9.7012 5.28516H8.39282V6.59354H9.7012V5.28516Z" fill="#CE470A"/>
<path d="M9.7012 7.88672H8.39282V9.1951H9.7012V7.88672Z" fill="#CE470A"/>
<path d="M9.7012 10.4844H8.39282V11.7928H9.7012V10.4844Z" fill="#CE470A"/>
<path d="M8.40994 2.6875H7.10156V3.99588H8.40994V2.6875Z" fill="#CE470A"/>
<path d="M8.40994 9.17578H7.10156V10.4842H8.40994V9.17578Z" fill="#CE470A"/>
<path d="M7.11893 3.99609H5.81055V5.30448H7.11893V3.99609Z" fill="#CE470A"/>
<path d="M7.11893 13.1016H5.81055V14.4099H7.11893V13.1016Z" fill="#CE470A"/>
<path d="M5.81033 6.59375H4.50195V7.90213H5.81033V6.59375Z" fill="#CE470A"/>
<path d="M17.5171 1.37891H16.2087V2.68729H17.5171V1.37891Z" fill="#DC6A02"/>
<path d="M17.5171 6.59375H16.2087V7.90213H17.5171V6.59375Z" fill="#DC6A02"/>
<path d="M16.2087 10.4844V11.7928H17.5171V13.1011H18.8255V11.7928V10.4844H17.5171H16.2087Z" fill="#DC6A02"/>
<path d="M16.2086 7.88672H14.9175V9.17788V10.4863H16.2086V9.17788V7.88672Z" fill="#DC6A02"/>
<path d="M14.9175 13.1016V14.3927H16.2086V15.7011H17.517V14.3927H18.8254V13.1016H17.517H16.2086H14.9175Z" fill="#DC6A02"/>
<path d="M14.9175 5.28516H13.6091V6.59354H14.9175V5.28516Z" fill="#DC6A02"/>
<path d="M20.1166 14.3927V15.7011H21.425V14.3927H20.1166ZM20.1166 13.1016H18.8254V14.3927H20.1166V13.1016Z" fill="#DC6A02"/>
<path d="M18.8255 15.7031H17.5171V17.0115H18.8255V15.7031Z" fill="#DC6A02"/>
<path d="M13.6092 2.6875H12.3008V3.99588H13.6092V2.6875Z" fill="#DC6A02"/>
<path d="M13.6092 9.17578H12.3008V10.4842H13.6092V9.17578Z" fill="#DC6A02"/>
<path d="M13.6092 14.3945H12.3008V15.7029H13.6092V14.3945Z" fill="#DC6A02"/>
<path d="M12.3008 6.59375H10.9924V7.90213H12.3008V6.59375Z" fill="#DC6A02"/>
<path d="M11.0096 5.28516H9.70117V6.59354H11.0096V5.28516Z" fill="#DC6A02"/>
<path d="M9.70117 9.17788V10.4863H10.9923V9.17788V7.88672H9.70117V9.17788Z" fill="#DC6A02"/>
<path d="M9.70132 2.68549V1.3771H8.39294V0.0859375H7.10177H5.81061H4.50223V1.3771H3.19385V2.68549V3.99387H4.50223V2.68549H5.81061V1.3771H7.10177V2.68549H8.39294V3.99387H9.70132V2.68549Z" fill="#DC6A02"/>
<path d="M7.10156 5.28726V6.59564V7.88681H8.39273V6.59564V5.28726V3.99609H7.10156V5.28726Z" fill="#DC6A02"/>
<path d="M7.11893 2.6875H5.81055V3.99588H7.11893V2.6875Z" fill="#DC6A02"/>
<path d="M13.6091 10.4844V11.7928V13.1011H14.9175V11.7928V10.4844H13.6091Z" fill="#F18A00"/>
<path d="M12.3008 10.4844H10.9924V11.7928H12.3008V10.4844Z" fill="#F18A00"/>
<path d="M11.0096 13.1016H9.70117V14.4099H11.0096V13.1016Z" fill="#F18A00"/>
<path d="M9.7012 11.793H8.39282V13.1014H9.7012V11.793Z" fill="#F18A00"/>
<path d="M9.7012 14.3945H8.39282V15.7029H9.7012V14.3945Z" fill="#F18A00"/>
<path d="M8.40994 7.88672H7.10156V9.1951H8.40994V7.88672Z" fill="#F18A00"/>
<path d="M7.10171 10.4844H5.81055V11.7928H7.10171H8.39288V10.4844H7.10171Z" fill="#F18A00"/>
<path d="M7.11893 5.28516H5.81055V6.59354H7.11893V5.28516Z" fill="#F18A00"/>
<path d="M5.81033 3.99609H4.50195V5.30448H5.81033V3.99609Z" fill="#F18A00"/>
<path d="M5.81061 7.88672H4.50223H3.19385V9.17788H4.50223H5.81061V7.88672Z" fill="#F18A00"/>
<path d="M3.19363 0.0859375H1.88525V1.39432H3.19363V0.0859375Z" fill="#F18A00"/>
<path d="M3.19363 5.28516H1.88525V6.59354H3.19363V5.28516Z" fill="#F18A00"/>
<path d="M3.19363 10.4844H1.88525V11.7928H3.19363V10.4844Z" fill="#F18A00"/>
<path d="M1.90262 1.37891H0.594238V2.68729H1.90262V1.37891Z" fill="#F18A00"/>
<path d="M1.90262 3.99609H0.594238V5.30448H1.90262V3.99609Z" fill="#F18A00"/>
</svg>
